<?xml version="1.0" encoding="utf-8"?>
<!-- Generator: Adobe Illustrator 27.4.1, SVG Export Plug-In . SVG Version: 6.00 Build 0)  -->
<svg version="1.1" id="Layer_1" xmlns="http://www.w3.org/2000/svg" xmlns:xlink="http://www.w3.org/1999/xlink" x="0px" y="0px"
	 viewBox="0 0 100 100" style="enable-background:new 0 0 100 100;" xml:space="preserve">
<style type="text/css">
	.st0{fill:#B97941;}
	.st1{fill:#FF3038;}
	.st2{fill:#FF6D73;}
	.st3{fill:#DA9D6A;}
	.st4{fill:#3E6FD8;}
	.st5{fill:#649CFF;}
</style>
<g>
	<g>
		<g>
			<path class="st0" d="M7.77,78.22L5.79,96.35c-0.1,0.94,0.64,1.77,1.59,1.77h1.35c0.74,0,1.38-0.51,1.55-1.23l4.47-18.67"/>
			<path class="st0" d="M27.56,78.22l1.98,18.13c0.1,0.94-0.64,1.77-1.59,1.77H26.6c-0.74,0-1.38-0.51-1.55-1.23l-4.47-18.67"/>
		</g>
		<path class="st1" d="M17.36,24.43c0,0-19.06,10.14-12.54,41.19c0.69,3.31,3.62,5.69,7.01,5.69h21.93c0,0-4.05,13.02-2.14,25.64
			c0.1,0.68,0.7,1.18,1.39,1.18h13.16c0.94,0,1.61-0.9,1.35-1.8l-0.25-0.86c-0.12-0.42-0.43-0.76-0.84-0.91l-5.15-2.02l1.69-25.3
			c0.14-2.04-1.24-3.87-3.23-4.32l-16.4-3.65l2.86-18.36L17.36,24.43z"/>
		<path class="st2" d="M55.22,28.86l-4.48,0.33c-0.67,0.05-1.27,0.39-1.67,0.93l-1.08,1.48l-13.36,3.76l-10.1-8.41
			c-0.96-1.8-2.85-3.03-5.03-3.03c-3.15,0-5.69,2.55-5.69,5.69c0,1.92,0.96,3.62,2.42,4.65l-0.08,0.07l14.81,9.85
			c1.64,1.09,3.68,1.37,5.55,0.76l19.62-6.35c0.92-0.31,1.54-1.18,1.54-2.15v-5.34C57.65,29.8,56.53,28.76,55.22,28.86z"/>
		<circle class="st1" cx="34.16" cy="14.51" r="12.63"/>
		<path class="st3" d="M27.71,79.29H7.61c-1.54,0-2.64-1.47-2.21-2.95l1.01-3.48C6.7,71.88,7.6,71.2,8.63,71.2H26.7
			c1.02,0,1.93,0.68,2.21,1.66l1.01,3.48C30.36,77.82,29.25,79.29,27.71,79.29z"/>
		<path class="st2" d="M35.44,67.75l-19.47-3.88c-1.52-0.3-2.52-1.78-2.23-3.31l5.08-26.58l-2.9-8.62
			c-4.3,3.11-16.54,14.47-11.11,40.28c0.69,3.3,3.63,5.66,7,5.66h21.93c0,0-4.05,13.02-2.14,25.64c0.1,0.68,0.7,1.18,1.39,1.18h2.7
			c-1.35-10.03,0.78-21.79,1.92-27.04C37.95,69.56,36.98,68.06,35.44,67.75z"/>
		<path class="st2" d="M24.21,18.47c0-7.44,6.03-13.48,13.48-13.48c2.26,0,4.38,0.56,6.25,1.54c-2.32-2.83-5.82-4.65-9.77-4.65
			c-6.98,0-12.63,5.66-12.63,12.63c0,3.43,1.37,6.54,3.6,8.82C24.54,21.82,24.21,20.19,24.21,18.47z"/>
	</g>
	<g>
		<g>
			<path class="st0" d="M92.23,78.22l1.98,18.13c0.1,0.94-0.64,1.77-1.59,1.77h-1.35c-0.74,0-1.38-0.51-1.55-1.23l-4.47-18.67"/>
			<path class="st0" d="M72.44,78.22l-1.98,18.13c-0.1,0.94,0.64,1.77,1.59,1.77h1.35c0.74,0,1.38-0.51,1.55-1.23l4.47-18.67"/>
		</g>
		<path class="st4" d="M82.64,24.43c0,0,19.06,10.14,12.54,41.19c-0.69,3.31-3.62,5.69-7.01,5.69H66.25c0,0,4.05,13.02,2.14,25.64
			c-0.1,0.68-0.7,1.18-1.39,1.18H53.84c-0.94,0-1.61-0.9-1.35-1.8l0.25-0.86c0.12-0.42,0.43-0.76,0.84-0.91l5.15-2.02l-1.69-25.3
			c-0.14-2.04,1.24-3.87,3.23-4.32l16.4-3.65L73.81,40.9L82.64,24.43z"/>
		<path class="st5" d="M44.78,28.86l4.48,0.33c0.67,0.05,1.27,0.39,1.67,0.93l1.08,1.48l13.36,3.76l10.1-8.41
			c0.96-1.8,2.85-3.03,5.03-3.03c3.15,0,5.69,2.55,5.69,5.69c0,1.92-0.96,3.62-2.42,4.65l0.08,0.07l-14.81,9.85
			c-1.64,1.09-3.68,1.37-5.55,0.76L43.89,38.6c-0.92-0.31-1.54-1.18-1.54-2.15v-5.34C42.35,29.8,43.47,28.76,44.78,28.86z"/>
		<circle class="st4" cx="65.84" cy="14.51" r="12.63"/>
		<path class="st3" d="M72.29,79.29h20.1c1.54,0,2.64-1.47,2.21-2.95l-1.01-3.48c-0.29-0.98-1.19-1.66-2.21-1.66H73.3
			c-1.02,0-1.93,0.68-2.21,1.66l-1.01,3.48C69.64,77.82,70.75,79.29,72.29,79.29z"/>
		<path class="st5" d="M64.56,67.75l19.47-3.88c1.52-0.3,2.52-1.78,2.23-3.31l-5.08-26.58l2.9-8.62
			c4.3,3.11,16.54,14.47,11.11,40.28c-0.69,3.3-3.63,5.66-7,5.66H66.25c0,0,4.05,13.02,2.14,25.64c-0.1,0.68-0.7,1.18-1.39,1.18
			h-2.7c1.35-10.03-0.78-21.79-1.92-27.04C62.05,69.56,63.02,68.06,64.56,67.75z"/>
		<path class="st5" d="M75.79,18.47c0-7.44-6.03-13.48-13.48-13.48c-2.26,0-4.38,0.56-6.25,1.54c2.32-2.83,5.82-4.65,9.77-4.65
			c6.98,0,12.63,5.66,12.63,12.63c0,3.43-1.37,6.54-3.6,8.82C75.46,21.82,75.79,20.19,75.79,18.47z"/>
	</g>
</g>
</svg>
