<?xml version="1.0" encoding="utf-8"?>
<!-- Generator: Adobe Illustrator 27.4.0, SVG Export Plug-In . SVG Version: 6.00 Build 0)  -->
<svg version="1.1" id="Layer_1" xmlns="http://www.w3.org/2000/svg" xmlns:xlink="http://www.w3.org/1999/xlink" x="0px" y="0px"
	 viewBox="0 0 100 100" style="enable-background:new 0 0 100 100;" xml:space="preserve">
<style type="text/css">
	.st0{fill:#D6E1E9;}
	.st1{fill:#00BDC2;}
	.st2{fill:#E7EEF2;}
	.st3{fill:#FFDE46;}
	.st4{opacity:0.24;fill:#5A009D;}
	.st5{fill:#FFFFFF;}
	.st6{fill:#FF6D73;}
	.st7{fill:#FF3038;}
</style>
<g>
	<g>
		<g>
			<g>
				<path class="st0" d="M0.26,42.72l12.12,48.59c1.14,4.58,5.78,7.36,10.36,6.22L49,90.98c4.58-1.14,7.36-5.78,6.22-10.36
					L43.11,32.04c-1.14-4.58-5.78-7.36-10.36-6.22L6.48,32.37C1.9,33.51-0.89,38.14,0.26,42.72z"/>
				<path class="st1" d="M20.65,91.09c-0.69,0-1.54-0.44-1.78-1.4L6.76,41.1c-0.24-0.98,0.36-1.99,1.34-2.23l26.27-6.55
					c0.15-0.04,0.3-0.06,0.45-0.06c0.69,0,1.54,0.44,1.78,1.4l12.12,48.59c0.15,0.61-0.03,1.1-0.21,1.39
					c-0.18,0.3-0.52,0.68-1.13,0.84L21.1,91.03C20.95,91.07,20.8,91.09,20.65,91.09z"/>
			</g>
		</g>
		<g>
			<g>
				<path class="st2" d="M56.89,32.04L44.78,80.63c-1.14,4.58,1.64,9.21,6.22,10.36l26.27,6.55c4.58,1.14,9.21-1.64,10.36-6.22
					l12.12-48.59c1.14-4.58-1.64-9.21-6.22-10.36l-26.27-6.55C62.67,24.67,58.04,27.46,56.89,32.04z"/>
				<path class="st3" d="M79.35,91.09c-0.15,0-0.3-0.02-0.45-0.06l-26.27-6.55c-0.61-0.15-0.95-0.54-1.13-0.84
					c-0.18-0.3-0.36-0.78-0.21-1.39L63.4,33.66c0.24-0.96,1.09-1.4,1.78-1.4c0.15,0,0.3,0.02,0.45,0.06l26.27,6.55
					c0.61,0.15,0.95,0.54,1.13,0.84c0.18,0.3,0.36,0.78,0.21,1.39L81.13,89.69C80.89,90.65,80.04,91.09,79.35,91.09L79.35,91.09z"/>
			</g>
		</g>
	</g>
	<path class="st4" d="M64.97,6.04H35.03c-5.22,0-9.44,4.23-9.44,9.44v55.36c0,5.22,4.23,9.44,9.44,9.44h29.93
		c5.22,0,9.44-4.23,9.44-9.44V15.48C74.41,10.27,70.18,6.04,64.97,6.04z"/>
	<g>
		<g>
			<path class="st5" d="M25.59,11.65v55.36c0,5.22,4.23,9.44,9.44,9.44h29.93c5.22,0,9.44-4.23,9.44-9.44V11.65
				c0-5.22-4.23-9.44-9.44-9.44H35.03C29.82,2.21,25.59,6.44,25.59,11.65z"/>
			<path class="st5" d="M25.59,11.65v55.36c0,5.22,4.23,9.44,9.44,9.44h29.93c5.22,0,9.44-4.23,9.44-9.44V11.65
				c0-5.22-4.23-9.44-9.44-9.44H35.03C29.82,2.21,25.59,6.44,25.59,11.65z"/>
			<path class="st6" d="M35.03,69.76c-1.51,0-2.74-1.23-2.74-2.74V11.65c0-1.51,1.23-2.74,2.74-2.74h29.93
				c1.51,0,2.74,1.23,2.74,2.74v55.36c0,1.51-1.23,2.74-2.74,2.74H35.03z"/>
		</g>
	</g>
	<circle class="st7" cx="50" cy="37.78" r="11.92"/>
</g>
</svg>
