<?xml version="1.0" encoding="utf-8"?>
<!-- Generator: Adobe Illustrator 27.4.0, SVG Export Plug-In . SVG Version: 6.00 Build 0)  -->
<svg version="1.1" id="Layer_1" xmlns="http://www.w3.org/2000/svg" xmlns:xlink="http://www.w3.org/1999/xlink" x="0px" y="0px"
	 viewBox="0 0 100 100" style="enable-background:new 0 0 100 100;" xml:space="preserve">
<style type="text/css">
	.st0{fill:#F9C5AC;}
	.st1{fill:#EECE8D;}
	.st2{fill:#DB9E6A;}
	.st3{fill:#BB7941;}
	.st4{fill:#965929;}
	.st5{fill:#F5EBD4;}
	.st6{fill:#DACAAE;}
	.st7{fill:#FFD957;}
</style>
<g>
	<circle class="st0" cx="48.89" cy="20.28" r="10.11"/>
	<path class="st1" d="M53.8,91.17l-3.86-1.78l0,0l0,0l-3.06-2.41l-6.36,2.41l-0.76,3.19c-0.34,1.44,0.75,2.83,2.24,2.83h13.09
		c0.48,0,0.87-0.39,0.87-0.87C55.96,93.09,55.12,91.77,53.8,91.17z"/>
	<path class="st2" d="M53.53,94.29L53.53,94.29l-13.49,0c0.4,0.66,1.11,1.11,1.95,1.11h13.09c0.46,0,0.86-0.36,0.87-0.82
		c0.02-1.47-0.83-2.8-2.15-3.42l-3.86-1.78l-0.53-0.42l-4.29,0.42l5.99,2.42C52.23,92.26,53.11,93.16,53.53,94.29z"/>
	<g>
		<path class="st0" d="M18.44,40.64l-0.09-0.02l-0.08-3.34l-3.92-0.53l0-0.03L9.87,41c-0.78,0.75-0.81,1.98-0.07,2.77l2.89,3.06
			c0.76,0.8,2.03,0.82,2.82,0.04l3.15-3.15c0.71-0.71,0.77-1.83,0.15-2.61L18.44,40.64z"/>
		<polygon class="st0" points="71.27,41.34 69.18,44.45 72.83,47.37 72.76,41.34 71.27,41.34 		"/>
	</g>
	<path class="st2" d="M8.4,78.16l-0.1-5.82l-2.94-3.1l-3.29,0.33C0.6,69.71-0.36,71.2,0.13,72.6l4.26,12.38
		c0.16,0.45,0.65,0.69,1.1,0.54c1.37-0.47,2.34-1.69,2.48-3.13L8.4,78.16L8.4,78.16L8.4,78.16z"/>
	<path class="st3" d="M95.6,10.16H70.61c-2.43,0-4.4,1.97-4.4,4.4v17.05h12.79v-3.24c0-1.18,1.35-1.84,2.28-1.12l10.54,8.11
		c0.74,0.57,0.74,1.68,0,2.25l-10.54,8.11c-0.93,0.72-2.28,0.05-2.28-1.12l-8.73-0.68l-4.06-1.28V91c0,2.43,1.97,4.4,4.4,4.4H95.6
		c2.43,0,4.4-1.97,4.4-4.4V14.56C100,12.13,98.03,10.16,95.6,10.16z"/>
	<g>
		<path class="st4" d="M48.75,5.23l-2.28,1.71l-2.73-0.82c-1.51-0.45-3.16,0.31-3.73,1.7c-1.75,4.29-1.69,11.53-1.69,11.53
			l10.03-1.78l10.04-1.78c0,0-2.49-6.96-5.66-10.35C51.75,4.39,49.96,4.32,48.75,5.23z"/>
		<path class="st3" d="M33.27,20.26l30.17-5.36c0.68-0.12,1.13-0.77,1.01-1.45v0c-0.12-0.68-0.77-1.13-1.45-1.01L32.83,17.8
			c-0.68,0.12-1.13,0.77-1.01,1.45v0C31.94,19.93,32.59,20.38,33.27,20.26z"/>
	</g>
	<g>
		<path class="st4" d="M48.75,5.23l-2.28,1.71l-2.73-0.82c-1.51-0.45-3.16,0.31-3.73,1.7c-1.75,4.29-1.69,11.53-1.69,11.53
			l10.03-1.78l10.04-1.78c0,0-2.49-6.96-5.66-10.35C51.75,4.39,49.96,4.32,48.75,5.23z"/>
		<path class="st5" d="M38.34,18.23l19.74-3.27c-0.41-1.04-1.2-2.93-2.23-4.88l-17.13,3.17C38.46,15.24,38.37,17.1,38.34,18.23z"/>
		<path class="st3" d="M33.27,20.26l30.17-5.36c0.68-0.12,1.13-0.77,1.01-1.45v0c-0.12-0.68-0.77-1.13-1.45-1.01L32.83,17.8
			c-0.68,0.12-1.13,0.77-1.01,1.45v0C31.94,19.93,32.59,20.38,33.27,20.26z"/>
	</g>
	<path class="st3" d="M31.41,72.66l2.4-8.38c-1.13-1.1-2.25-2.2-3.34-3.34c-1.44-1.51-2.89-3.02-4.31-4.55
		c-0.4-0.43-0.8-0.87-1.19-1.33l-2.38,12.48l-17.23,1.7l3.04,8.91l18.03-1.43C28.78,76.54,30.76,74.92,31.41,72.66z"/>
	<path class="st5" d="M72.73,41.4H58.24l0.03-0.05h-0.03l-4.13-3.67c-2.79-2.48-5.93-4.52-9.32-6.07c-2.67-1.22-5.47-2.12-8.35-2.68
		l-9-1.76c-1.6-0.31-3.25,0.17-4.42,1.29l-8.68,8.3l4.01,3.87l8.53-4.96l6.16,2.21L25.8,51.73l6.52,7.14l8.12-1.19l6.77-13.17
		c2.31,1.4,4.75,2.89,6.47,3.95c1.45,0.89,3.17,1.25,4.86,1.01l14.25-2.03L72.73,41.4z"/>
	<polygon class="st6" points="34.17,55.06 37.88,58.01 40.48,57.63 47.25,44.46 44.8,42.98 	"/>
	<path class="st7" d="M91.22,64.76c-2.14,0-3.87-1.73-3.87-3.87c0-2.14,1.73-3.87,3.87-3.87c2.14,0,3.87,1.73,3.87,3.87
		C95.09,63.02,93.36,64.76,91.22,64.76z"/>
	<path class="st0" d="M72.83,47.37h4.06c1.12,0,2.03-0.91,2.03-2.03v-4.94c0-1.01-0.82-1.82-1.82-1.82h-1.95
		c-0.91,0-1.78,0.39-2.39,1.08l-1.49,1.68L72.83,47.37z"/>
	<path class="st2" d="M52.22,65.84l-11.74-8.21l-14.64-5.96l-0.68,1.29c-1.9,3.64-0.59,8.13,2.98,10.17l16.38,9.38l-4,16.87h9.42
		l4.51-17.51C55.04,69.59,54.15,67.19,52.22,65.84z"/>
	<path class="st3" d="M49.94,89.38l4.51-17.51c0.59-2.28-0.3-4.68-2.23-6.03l-11.74-8.21l-6.31-2.57l15.71,14.18l-4.76,20.14H49.94z
		"/>
</g>
</svg>
