<?xml version="1.0" encoding="utf-8"?>
<!-- Generator: Adobe Illustrator 27.4.0, SVG Export Plug-In . SVG Version: 6.00 Build 0)  -->
<svg version="1.1" id="Layer_1" xmlns="http://www.w3.org/2000/svg" xmlns:xlink="http://www.w3.org/1999/xlink" x="0px" y="0px"
	 viewBox="0 0 100 100" style="enable-background:new 0 0 100 100;" xml:space="preserve">
<style type="text/css">
	.st0{fill:#736F27;}
	.st1{fill:#92903D;}
	.st2{fill:#B9BB9C;}
	.st3{fill:#3E3F35;}
	.st4{fill:#767765;}
	.st5{fill:#FF3038;}
	.st6{fill:#60604A;}
	.st7{fill:#B68061;}
	.st8{fill:#91684F;}
	.st9{fill:#FFF5C9;}
</style>
<g>
	<path class="st0" d="M48.69,1c-6.57,0-11.89,4.03-11.89,9.01v19.07h23.79V10.01C60.58,5.03,55.26,1,48.69,1z"/>
	<g>
		<path class="st1" d="M78.43,52.86l-1.19-2.33c-1.16-2.27-3.5-3.71-6.06-3.71H21.64c-2.96,0-5.58,1.91-6.48,4.72L6.56,78.55"/>
		<path class="st2" d="M74.69,50.51c-1.06,0-2.1,0.08-3.13,0.21l0-0.01l-0.44,0.06c-0.06,0.01-0.13,0.02-0.19,0.03l-52.17,7.52l0,0
			C8.83,59.73,1.17,68.27,1.17,78.55c0,10.93,8.64,19.88,19.47,20.42l0,0.03h54.05C88.09,99,99,88.12,99,74.75
			S88.09,50.51,74.69,50.51z"/>
		<path class="st3" d="M74.69,55.88c-1.17,0-2.31,0.11-3.43,0.31l0,0l-49.59,7.29c-8.35,0-15.12,6.75-15.12,15.08
			c0,8.33,6.77,15.08,15.12,15.08h53.01c10.45,0,18.93-8.45,18.93-18.88C93.62,64.33,85.14,55.88,74.69,55.88z"/>
		<g>
			<ellipse class="st4" cx="21.67" cy="78.55" rx="15.12" ry="15.08"/>
			<ellipse class="st5" cx="74.69" cy="74.75" rx="18.93" ry="18.88"/>
			<ellipse class="st4" cx="74.69" cy="74.75" rx="18.93" ry="18.88"/>
		</g>
		<ellipse class="st6" cx="21.67" cy="78.55" rx="11.08" ry="11.05"/>
		<ellipse class="st2" cx="21.67" cy="78.55" rx="3.81" ry="3.8"/>
		<ellipse class="st6" cx="74.69" cy="74.75" rx="14.02" ry="13.99"/>
		<ellipse class="st3" cx="74.69" cy="74.75" rx="9.02" ry="9"/>
		<ellipse class="st2" cx="41.2" cy="87.45" rx="5.01" ry="5"/>
		<ellipse class="st2" cx="52.64" cy="87.45" rx="5.01" ry="5"/>
		<ellipse class="st2" cx="46.21" cy="69.97" rx="8.61" ry="8.59"/>
		<ellipse class="st6" cx="46.21" cy="69.97" rx="4.97" ry="4.96"/>
		<ellipse class="st2" cx="74.69" cy="74.75" rx="4.04" ry="4.03"/>
		<g>
			<g>
				<polygon class="st2" points="99,31.94 98.84,30.2 98.34,24.63 98.18,22.88 61.65,25.46 62.01,29.41 62.36,33.36 62.72,37.3 				
					"/>
				<polygon class="st0" points="78.87,36.77 78.62,34.02 77.83,25.24 77.59,22.49 61.34,22.06 61.9,28.27 62.46,34.49 63.02,40.71 
									"/>
			</g>
			<g>
				<path class="st0" d="M59.96,17.45l-21.32-2.37c-5.2-0.46-9.94,3.3-11.17,8.87l-3.75,16.9c-0.68,3.04,1.42,5.98,4.27,5.98h36.35
					c3.29,0,5.85-3.15,5.49-6.75l-1.38-13.58C67.95,21.64,64.39,17.85,59.96,17.45z"/>
			</g>
			<path class="st1" d="M68.44,26.49c-0.49-4.86-4.05-8.65-8.48-9.04l-21.32-2.37c-5.2-0.46-9.94,3.3-11.17,8.87l-3.75,16.9
				c-0.04,0.17-0.06,0.34-0.08,0.51h25.8l3.34-10.42h9.94l2.53,10.42h4.58c0.04-0.42,0.04-0.84-0.01-1.28L68.44,26.49z"/>
		</g>
		<ellipse class="st2" cx="12.08" cy="46.82" rx="11.08" ry="11.05"/>
		<ellipse class="st4" cx="12.08" cy="46.82" rx="7.84" ry="7.82"/>
		<ellipse class="st2" cx="12.08" cy="46.82" rx="5.72" ry="5.71"/>
		<path class="st7" d="M16.65,16.77l-2.73,12.46c-0.37,1.71,0.64,3.38,2.27,3.73l6.26,1.36c1.63,0.35,3.25-0.74,3.62-2.45
			l2.73-12.46c0.37-1.71-0.64-3.38-2.27-3.73l-6.26-1.36C18.64,13.96,17.02,15.06,16.65,16.77z"/>
		<path class="st8" d="M18.17,33.39l4.28,0.93c1.63,0.35,3.25-0.74,3.62-2.45l2.73-12.46c0.07-0.32,0.09-0.63,0.07-0.94l-7.51,0.32
			L18.17,33.39z"/>
	</g>
	<path class="st1" d="M37.15,7.81l23.43,2.05C60.47,4.95,55.19,1,48.69,1C43.12,1,38.45,3.9,37.15,7.81z"/>
	<polygon class="st9" points="42.21,29.34 39.26,23.36 36.31,29.34 31.78,28.2 35.06,34.8 39.26,34.8 43.47,34.8 46.75,28.2 	"/>
</g>
</svg>
