<?xml version="1.0" encoding="utf-8"?>
<!-- Generator: Adobe Illustrator 27.4.0, SVG Export Plug-In . SVG Version: 6.00 Build 0)  -->
<svg version="1.1" id="Layer_1" xmlns="http://www.w3.org/2000/svg" xmlns:xlink="http://www.w3.org/1999/xlink" x="0px" y="0px"
	 viewBox="0 0 100 100" style="enable-background:new 0 0 100 100;" xml:space="preserve">
<style type="text/css">
	.st0{fill:#FF3038;}
	.st1{fill:#FF6D73;}
	.st2{fill:#3E6FD9;}
	.st3{fill:#649EFF;}
	.st4{fill:#86B918;}
	.st5{fill:#C9E04C;}
	.st6{fill:#FFBA1D;}
	.st7{fill:#FFDE46;}
	.st8{fill:#661B1E;}
	.st9{fill:#0C3474;}
	.st10{fill:#4A6400;}
	.st11{fill:#955D00;}
</style>
<g>
	<g>
		<g>
			<path class="st0" d="M36.22,46.89H11.67C5.78,46.89,1,42.12,1,36.22V11.67C1,5.78,5.78,1,11.67,1h24.55
				c5.89,0,10.67,4.78,10.67,10.67v24.55C46.89,42.12,42.12,46.89,36.22,46.89z"/>
			<path class="st1" d="M34.9,41.95H12.99c-5.26,0-9.52-4.26-9.52-9.52V10.52C3.47,5.26,7.73,1,12.99,1H34.9
				c5.26,0,9.52,4.26,9.52,9.52v21.91C44.42,37.69,40.16,41.95,34.9,41.95z"/>
		</g>
		<g>
			<path class="st2" d="M88.33,46.89H63.78c-5.89,0-10.67-4.78-10.67-10.67V11.67C53.11,5.78,57.88,1,63.78,1h24.55
				C94.22,1,99,5.78,99,11.67v24.55C99,42.12,94.22,46.89,88.33,46.89z"/>
			<path class="st3" d="M87.01,41.95H65.1c-5.26,0-9.52-4.26-9.52-9.52V10.52C55.58,5.26,59.84,1,65.1,1h21.91
				c5.26,0,9.52,4.26,9.52,9.52v21.91C96.53,37.69,92.27,41.95,87.01,41.95z"/>
		</g>
		<g>
			<path class="st4" d="M88.33,99H63.78c-5.89,0-10.67-4.78-10.67-10.67V63.78c0-5.89,4.78-10.67,10.67-10.67h24.55
				c5.89,0,10.67,4.78,10.67,10.67v24.55C99,94.22,94.22,99,88.33,99z"/>
			<path class="st5" d="M87.01,94.06H65.1c-5.26,0-9.52-4.26-9.52-9.52V62.63c0-5.26,4.26-9.52,9.52-9.52h21.91
				c5.26,0,9.52,4.26,9.52,9.52v21.91C96.53,89.8,92.27,94.06,87.01,94.06z"/>
		</g>
		<g>
			<path class="st6" d="M36.22,99H11.67C5.78,99,1,94.22,1,88.33V63.78c0-5.89,4.78-10.67,10.67-10.67h24.55
				c5.89,0,10.67,4.78,10.67,10.67v24.55C46.89,94.22,42.12,99,36.22,99z"/>
			<path class="st7" d="M34.9,94.06H12.99c-5.26,0-9.52-4.26-9.52-9.52V62.63c0-5.26,4.26-9.52,9.52-9.52H34.9
				c5.26,0,9.52,4.26,9.52,9.52v21.91C44.42,89.8,40.16,94.06,34.9,94.06z"/>
		</g>
	</g>
	<path class="st8" d="M36.57,17.57h-8.72V8.85c0-1.52-1.23-2.75-2.75-2.75h-2.31c-1.52,0-2.75,1.23-2.75,2.75v8.72h-8.72
		c-1.52,0-2.75,1.23-2.75,2.75v2.31c0,1.52,1.23,2.75,2.75,2.75h8.72v8.72c0,1.52,1.23,2.75,2.75,2.75h2.31
		c1.52,0,2.75-1.23,2.75-2.75v-8.72h8.72c1.52,0,2.75-1.23,2.75-2.75v-2.31C39.33,18.8,38.09,17.57,36.57,17.57z"/>
	<path class="st9" d="M88.68,17.57h-8.72h-7.81h-8.72c-1.52,0-2.75,1.23-2.75,2.75v2.31c0,1.52,1.23,2.75,2.75,2.75h8.72h7.81h8.72
		c1.52,0,2.75-1.23,2.75-2.75v-2.31C91.43,18.8,90.2,17.57,88.68,17.57z"/>
	<path class="st10" d="M88.68,69.5h-8.72h-7.81h-8.72c-1.52,0-2.75,1.23-2.75,2.75v2.31c0,1.52,1.23,2.75,2.75,2.75h8.72h7.81h8.72
		c1.52,0,2.75-1.23,2.75-2.75v-2.31C91.43,70.73,90.2,69.5,88.68,69.5z"/>
	<path class="st11" d="M35.64,79.75l-6.17-6.17l6.17-6.17c1.08-1.08,1.08-2.82,0-3.89l-1.63-1.63c-1.08-1.08-2.82-1.08-3.89,0
		l-6.17,6.17l-6.17-6.17c-1.08-1.08-2.82-1.08-3.89,0l-1.63,1.63c-1.08,1.08-1.08,2.82,0,3.89l6.17,6.17l-6.17,6.17
		c-1.08,1.08-1.08,2.82,0,3.89l1.63,1.63c1.08,1.08,2.82,1.08,3.89,0l6.17-6.17l6.17,6.17c1.08,1.08,2.82,1.08,3.89,0l1.63-1.63
		C36.71,82.57,36.71,80.82,35.64,79.75z"/>
	<circle class="st10" cx="76.05" cy="62.8" r="4.82"/>
	<circle class="st10" cx="76.05" cy="84.01" r="4.82"/>
</g>
</svg>
