<?xml version="1.0" encoding="utf-8"?>
<!-- Generator: Adobe Illustrator 27.4.0, SVG Export Plug-In . SVG Version: 6.00 Build 0)  -->
<svg version="1.1" id="Layer_1" xmlns="http://www.w3.org/2000/svg" xmlns:xlink="http://www.w3.org/1999/xlink" x="0px" y="0px"
	 viewBox="0 0 100 100" style="enable-background:new 0 0 100 100;" xml:space="preserve">
<style type="text/css">
	.st0{fill:#CBCBCB;}
	.st1{fill:#C38E59;}
	.st2{fill:#FF3038;}
	.st3{fill:#FF6D73;}
	.st4{fill:#FF9EFF;}
	.st5{fill:#FF65FF;}
	.st6{fill:#808BA6;}
	.st7{fill:#FFFFFF;}
	.st8{opacity:0.34;fill:#808BA6;}
	.st9{fill:#595969;}
	.st10{fill:#FFDE46;}
</style>
<g>
	<path class="st0" d="M33.65,59.77l2.24-6.06l8.82-4.5l7.87-1.15l3.85,3.78l0.35,10.23c0.09,2.5-0.79,4.95-2.44,6.83l0,0
		c-1.62,1.85-3.88,3.03-6.33,3.3l-13.03,1.45L33.65,59.77z"/>
	<path class="st1" d="M11.06,54.58l0.58-2.48c0.31-1.33,1.42-2.32,2.78-2.48l21.17-2.45l1.21,6.97L11.06,54.58z"/>
	<path class="st2" d="M60.97,46.79c0,0,6.32-9.74,19.2-9.9c0.71-0.01,1.2-0.71,0.96-1.37l0,0c-0.14-0.38-0.48-0.64-0.87-0.68
		l-5.2-0.47c-3.83-0.35-7.68,0.43-11.08,2.22l-9.9,5.23"/>
	<path class="st3" d="M80.26,34.83l-5.2-0.47c-3.83-0.35-7.68,0.43-11.08,2.22l-5.64,2.98l1.47,3.88c0,0,8.34-9.54,21.38-7.43
		c0.03-0.17,0.02-0.34-0.04-0.52C81,35.13,80.66,34.87,80.26,34.83z"/>
	<path class="st2" d="M60.49,41.2c-0.18,0.03-3.14-1.4-5.58-2.6c-2.13-1.05-4.55-1.4-6.95-1l0,0c-3.98,0.65-7.54,3.27-9.56,7.03
		l-0.91,1.69l-0.68,7.83l19.68-0.84l6.93-8.9L60.49,41.2z"/>
	<path class="st3" d="M47.96,37.59L47.96,37.59c-3.98,0.65-7.54,3.27-9.56,7.03l-0.91,1.69l-0.19,2.2l1.79,2.39l17.26-6.68
		l-1.43-5.63C52.78,37.55,50.36,37.2,47.96,37.59z"/>
	<path class="st4" d="M31.62,13.96l-1.08,2.26c0,0-13.61-1.56-16.47,17.08l12.39,5.92l9.5-17.42l4.97-2.7"/>
	<path class="st5" d="M35.96,21.8l4.97-2.7l-9.31-5.14l-1.08,2.26c0,0-0.53-0.06-1.4-0.01l-1.28,2.14l0.65,4.95l-5.95,10.99
		l-8.49-0.98l12.39,5.92L35.96,21.8z"/>
	<path class="st2" d="M35.29,50.9l-18.98,1.7c-3.44,0.31-6.8,1.26-9.9,2.8l0,0c-0.82,0.41-0.56,1.64,0.36,1.68l9.64,0.37l18.52,8.56
		L35.29,50.9z"/>
	<g>
		<path class="st3" d="M29.84,51.39L16.31,52.6c-3.44,0.31-6.8,1.26-9.9,2.8C5.95,55.64,5.84,56.13,6,56.52l3.92-0.87
			c2.76-0.61,5.58-0.87,8.4-0.75l10.71,0.43L29.84,51.39z"/>
		<path class="st3" d="M34.29,55.54l0.89,0.04l0.11-4.67C35.29,50.9,34.69,53.55,34.29,55.54z"/>
	</g>
	<g>
		<g>
			<g>
				<path class="st6" d="M37.43,81.07c-0.43-8.6-7.76-15.22-16.36-14.79c-8.6,0.43-15.22,7.76-14.79,16.36
					c0.43,8.6,7.76,15.22,16.36,14.79C31.24,97,37.86,89.67,37.43,81.07z M22.36,91.97c-5.58,0.28-10.34-4.02-10.62-9.6
					c-0.28-5.58,4.02-10.34,9.6-10.62s10.34,4.02,10.62,9.6C32.25,86.93,27.95,91.69,22.36,91.97z"/>
				<g>
					<g>
						<path class="st6" d="M38.89,84.79c0.68-0.21,1.14-0.86,1.1-1.57l0-0.04l-0.22-4.45l0-0.04c-0.04-0.72-0.55-1.31-1.26-1.45
							l-2.95-0.58l0.12,2.28l0.22,4.45l0.12,2.28L38.89,84.79z"/>
						<path class="st6" d="M4.82,78.93c-0.68,0.21-1.14,0.86-1.1,1.57l0,0.04l0.22,4.45l0,0.04c0.04,0.72,0.55,1.31,1.26,1.45
							l2.95,0.58l-0.12-2.28l-0.22-4.45l-0.12-2.28L4.82,78.93z"/>
					</g>
					<g>
						<path class="st6" d="M18.92,98.89c0.21,0.68,0.86,1.14,1.57,1.1l0.04,0l4.45-0.22l0.04,0c0.72-0.04,1.31-0.55,1.45-1.26
							l0.58-2.95l-2.28,0.12l-4.45,0.22l-2.28,0.12L18.92,98.89z"/>
						<path class="st6" d="M24.78,64.82c-0.21-0.68-0.86-1.14-1.57-1.1l-0.04,0l-4.45,0.22l-0.04,0c-0.72,0.04-1.31,0.55-1.45,1.26
							l-0.58,2.95l2.28-0.12l4.45-0.22l2.28-0.12L24.78,64.82z"/>
					</g>
				</g>
				<g>
					<g>
						<path class="st6" d="M31.83,95.98c0.63,0.34,1.41,0.2,1.89-0.33l0.03-0.03l2.99-3.31l0.03-0.03c0.48-0.53,0.54-1.32,0.14-1.92
							l-1.67-2.5l-1.53,1.7l-2.99,3.31l-1.53,1.7L31.83,95.98z"/>
						<path class="st6" d="M11.88,67.74c-0.63-0.34-1.41-0.2-1.89,0.33L9.96,68.1l-2.99,3.31l-0.03,0.03
							c-0.48,0.53-0.54,1.32-0.14,1.92l1.67,2.5l1.53-1.7L13,70.85l1.53-1.7L11.88,67.74z"/>
					</g>
					<g>
						<path class="st6" d="M7.74,91.83c-0.34,0.63-0.2,1.41,0.33,1.89l0.03,0.03l3.31,2.99l0.03,0.03c0.53,0.48,1.32,0.54,1.92,0.14
							l2.5-1.67l-1.7-1.53l-3.31-2.99l-1.7-1.53L7.74,91.83z"/>
						<path class="st6" d="M35.97,71.89c0.34-0.63,0.2-1.41-0.33-1.89l-0.03-0.03l-3.31-2.99l-0.03-0.03
							c-0.53-0.48-1.32-0.54-1.92-0.14l-2.5,1.67l1.7,1.53L32.86,73l1.7,1.53L35.97,71.89z"/>
					</g>
				</g>
			</g>
		</g>
		<path class="st6" d="M22.11,87.02c-2.85,0.14-5.28-2.05-5.42-4.9c-0.14-2.85,2.05-5.28,4.9-5.42c2.85-0.14,5.28,2.05,5.42,4.9
			C27.16,84.45,24.97,86.88,22.11,87.02z"/>
	</g>
	<circle class="st7" cx="47.82" cy="60.53" r="5.79"/>
	<path class="st0" d="M34.39,67.16l-13.85,12.5c-1.07,0.97-1.18,2.62-0.24,3.72l0,0c0.92,1.08,2.52,1.25,3.65,0.4L41.4,70.51
		L34.39,67.16z"/>
	<g>
		<g>
			<g>
				<path class="st6" d="M92.98,67.89c3.33-7.94-0.41-17.08-8.35-20.41c-7.94-3.33-17.08,0.41-20.41,8.35
					c-3.33,7.94,0.41,17.08,8.35,20.41C80.52,79.57,89.66,75.84,92.98,67.89z M74.69,71.2c-5.16-2.16-7.58-8.09-5.42-13.25
					c2.16-5.16,8.09-7.58,13.25-5.42c5.16,2.16,7.58,8.09,5.42,13.25S79.85,73.37,74.69,71.2z"/>
				<g>
					<g>
						<path class="st6" d="M92.7,71.88c0.71,0.11,1.4-0.28,1.68-0.94l0.02-0.04l1.72-4.11l0.02-0.04c0.28-0.66,0.07-1.42-0.5-1.85
							l-2.41-1.8l-0.88,2.11l-1.72,4.11l-0.88,2.11L92.7,71.88z"/>
						<path class="st6" d="M64.52,51.86c-0.71-0.11-1.4,0.28-1.68,0.94l-0.02,0.04l-1.72,4.11l-0.02,0.04
							c-0.28,0.66-0.07,1.42,0.5,1.85l2.41,1.8l0.88-2.11l1.72-4.11l0.88-2.11L64.52,51.86z"/>
					</g>
					<g>
						<path class="st6" d="M68.6,75.96c-0.11,0.71,0.28,1.4,0.94,1.68l0.04,0.02l4.11,1.72l0.04,0.02c0.66,0.28,1.42,0.07,1.85-0.5
							l1.8-2.41l-2.11-0.88l-4.11-1.72l-2.11-0.88L68.6,75.96z"/>
						<path class="st6" d="M88.62,47.78c0.11-0.71-0.28-1.4-0.94-1.68l-0.04-0.02l-4.11-1.72l-0.04-0.02
							c-0.66-0.28-1.42-0.07-1.85,0.5l-1.8,2.41l2.11,0.88l4.11,1.72l2.11,0.88L88.62,47.78z"/>
					</g>
				</g>
				<g>
					<g>
						<path class="st6" d="M81.49,78.91c0.42,0.58,1.19,0.79,1.85,0.52l0.04-0.02l4.12-1.69l0.04-0.02
							c0.66-0.27,1.06-0.96,0.95-1.67l-0.43-2.97l-2.12,0.87l-4.12,1.69l-2.12,0.87L81.49,78.91z"/>
						<path class="st6" d="M75.72,44.82c-0.42-0.58-1.19-0.79-1.85-0.52l-0.04,0.02l-4.12,1.69l-0.04,0.02
							c-0.66,0.27-1.06,0.96-0.95,1.67l0.43,2.97l2.12-0.87l4.12-1.69l2.12-0.87L75.72,44.82z"/>
					</g>
					<g>
						<path class="st6" d="M61.56,64.75c-0.58,0.42-0.79,1.19-0.52,1.85l0.02,0.04l1.69,4.12l0.02,0.04
							c0.27,0.66,0.96,1.06,1.67,0.95l2.97-0.43l-0.87-2.12l-1.69-4.12l-0.87-2.12L61.56,64.75z"/>
						<path class="st6" d="M95.65,58.98c0.58-0.42,0.79-1.19,0.52-1.85l-0.02-0.04l-1.69-4.12l-0.02-0.04
							c-0.27-0.66-0.96-1.06-1.67-0.95l-2.97,0.43l0.87,2.12l1.69,4.12l0.87,2.12L95.65,58.98z"/>
					</g>
				</g>
			</g>
		</g>
		<path class="st6" d="M76.61,66.64c-2.63-1.1-3.87-4.13-2.77-6.77c1.1-2.63,4.13-3.87,6.77-2.77c2.63,1.1,3.87,4.13,2.77,6.77
			C82.27,66.5,79.24,67.74,76.61,66.64z"/>
	</g>
	<circle class="st0" cx="43.2" cy="75.38" r="3.49"/>
	<path class="st6" d="M77.37,63.03L54.16,38.18c-1.64-1.76-2.91-3.83-3.72-6.1l-1.37-3.82l3.19-1.15l1.14,3.16
		c0.81,2.26,2.08,4.34,3.72,6.1l22.73,24.34L77.37,63.03z"/>
	<path class="st2" d="M65.97,45.69l-2.63,2.46c-0.49,0.46-0.52,1.22-0.06,1.71l12.3,13.17c0.46,0.49,1.23,0.52,1.72,0.06l2.64-2.46
		c0.49-0.46,0.52-1.23,0.06-1.72l-12.3-13.17C67.23,45.26,66.46,45.24,65.97,45.69z"/>
	<path class="st7" d="M14.07,33.31l-0.85,2.65c0,0-3.63,7.02,4.75,11.16l13.39,3.82l0.66,2.26c0,0-1.89,7.08,0.92,17.43
		c0.29,1.08,1.34,1.77,2.45,1.61l9.5-1.42c0.63-0.09,1.01-0.76,0.77-1.35l-0.46-1.12c-0.28-0.68-0.86-1.19-1.57-1.39l-3.04-0.85
		L40.4,53.18c-0.01-0.36-0.28-0.66-0.64-0.69l-0.77-0.06l0.5-4.1c0.21-1.75-0.72-3.43-2.31-4.18L14.07,33.31z"/>
	<path class="st8" d="M40.43,55.09l-0.02-1.61c-0.34-0.23-0.69-0.54-0.95-1.01l-0.47-0.04l0.14-1.13c-0.01-0.13-0.05-0.25-0.05-0.4
		c0-2.53-3.49-3.73-3.49-3.73l-20.13-8.3c-0.84,3.47-0.04,5.85,0.89,7.32c0.48,0.32,1.01,0.63,1.61,0.93l13.39,3.82l0.66,2.26
		c0,0-0.81,3.08-0.57,8.13l4.84-1.37L40.43,55.09z"/>
	<path class="st9" d="M32.94,70.64c0.29,1.08,1.34,1.77,2.45,1.61l9.5-1.42c0.63-0.09,1.01-0.76,0.77-1.35l-0.46-1.12
		c-0.28-0.68-0.86-1.2-1.57-1.39l-3.04-0.84L40.4,53.18c-0.01-0.36-0.28-0.66-0.64-0.69l-0.77-0.06l-7.11,1.44
		C31.49,55.84,30.63,62.13,32.94,70.64z"/>
	<path class="st9" d="M53.81,25.7l-3.87,0.27l-12.19,3.47l-5.26-8.19c0.44-2.23-0.74-4.56-3-5.44c-2.2-0.86-4.75,0.04-5.93,2.1
		c-1.24,2.16-0.62,4.81,1.25,6.24l10.08,11c0.95,1.04,2.48,1.31,3.74,0.67l9.97-5.13l5.29,0.29c0.74,0.04,1.36-0.56,1.35-1.31
		l-0.06-2.72C55.16,26.22,54.53,25.65,53.81,25.7z"/>
	<g>
		<polyline class="st9" points="46.2,17.48 47.7,9.78 40.4,7.41 37.43,8.78 36.29,13.88 		"/>
		<path class="st10" d="M46.2,17.48l-5.63-3.56c-1.16-0.73-1.58-2.21-0.99-3.45l0.69-1.46l9.39,2.36l0,0l1.04,0.19
			c0.85,0.15,1.16-0.66,0.45-1.18l-4.68-3.42c-0.63-1.62-1.6-3.12-2.88-4.37c-2.36-2.33-5.82-3.23-8.93-2.08
			c-3.33,1.23-5.47,4.38-5.47,7.84l0,3.74c0,1.26,0.71,2.42,1.83,2.99l11.3,5.75c1.36,0.69,3.02-0.05,3.4-1.54L46.2,17.48z"/>
	</g>
	<circle class="st7" cx="51.18" cy="28.68" r="3.29"/>
</g>
</svg>
