<?xml version="1.0" encoding="utf-8"?>
<!-- Generator: Adobe Illustrator 27.4.0, SVG Export Plug-In . SVG Version: 6.00 Build 0)  -->
<svg version="1.1" id="Layer_1" xmlns="http://www.w3.org/2000/svg" xmlns:xlink="http://www.w3.org/1999/xlink" x="0px" y="0px"
	 viewBox="0 0 100 100" style="enable-background:new 0 0 100 100;" xml:space="preserve">
<style type="text/css">
	.st0{fill:#626E87;}
	.st1{fill:#96A5C7;}
	.st2{opacity:0.29;fill:#626E87;}
	.st3{fill:#404262;}
	.st4{fill:#49E7FF;}
	.st5{fill:#717B93;}
	.st6{fill:#A4F5FF;}
</style>
<g>
	<g>
		<g>
			<path class="st0" d="M92.98,98.7H66.99V18.01h24.43c3.23,0,5.85,2.62,5.85,5.85v70.56C97.26,96.79,95.35,98.7,92.98,98.7z"/>
			<g>
				<rect x="28.81" y="77.07" class="st0" width="30.21" height="14.65"/>
				<path class="st1" d="M2.74,15.33v60.73c0,2.46,1.84,4.46,4.11,4.46h74.14c2.27,0,4.11-2,4.11-4.46v-60.7
					c0-2.3-1.61-4.24-3.73-4.45C46.39,7.5,16.61,9.85,6.45,10.88C4.34,11.1,2.74,13.03,2.74,15.33z"/>
				<path class="st2" d="M81.36,10.92C69.77,9.78,58.76,9.29,48.83,9.16l-4.92,4.92v66.44h37.07c2.27,0,4.11-2,4.11-4.46v-60.7
					C85.09,13.06,83.48,11.12,81.36,10.92z"/>
				<path class="st3" d="M13,70.24V20.74c6.32-0.58,17.16-1.33,30.76-1.33c10.58,0,21.02,0.46,31.06,1.36v49.46H13z"/>
				<path class="st4" d="M16.82,67.1V23.72c5.54-0.5,15.04-1.16,26.96-1.16c9.27,0,18.42,0.4,27.23,1.19V67.1H16.82z"/>
				<path class="st1" d="M73.84,98.7H13.99v0c0-5.76,4.67-10.43,10.43-10.43h38.99C69.17,88.27,73.84,92.94,73.84,98.7L73.84,98.7z"
					/>
			</g>
		</g>
		<circle class="st5" cx="43.91" cy="8.93" r="7.63"/>
		<circle class="st3" cx="43.91" cy="8.93" r="3.73"/>
	</g>
	<g>
		<rect x="16.82" y="58.36" class="st6" width="54.19" height="3.44"/>
		<rect x="16.82" y="52.91" class="st6" width="54.19" height="3.44"/>
		<rect x="16.82" y="42.91" class="st6" width="54.19" height="3.44"/>
		<rect x="16.82" y="32.91" class="st6" width="54.19" height="3.44"/>
		<rect x="16.82" y="26.91" class="st6" width="54.19" height="3.44"/>
	</g>
</g>
</svg>
