<?xml version="1.0" encoding="utf-8"?>
<!-- Generator: Adobe Illustrator 27.4.0, SVG Export Plug-In . SVG Version: 6.00 Build 0)  -->
<svg version="1.1" id="Layer_1" xmlns="http://www.w3.org/2000/svg" xmlns:xlink="http://www.w3.org/1999/xlink" x="0px" y="0px"
	 viewBox="0 0 100 100" style="enable-background:new 0 0 100 100;" xml:space="preserve">
<style type="text/css">
	.st0{fill:#BD8049;}
	.st1{fill:#E3AA73;}
	.st2{fill:#FFFFFF;}
	.st3{fill:#FF6D73;}
	.st4{fill:#FFDE46;}
	.st5{fill:#00F7F0;}
	.st6{fill:#72543A;}
	.st7{fill:#9A6588;}
	.st8{fill:#D6EFEE;}
	.st9{opacity:0.4;fill:#402A57;}
</style>
<g>
	<g>
		<path class="st0" d="M97.99,48.69c-0.01-0.18-0.01-0.36-0.02-0.54C96.96,22.72,76.01,2.32,50.62,2C23.83,1.67,2,23.34,2,50.11
			c0,24.88,18.84,45.35,43.01,47.85c0.38,0.04,0.76,0.03,1.13,0c0.22,0.01,0.43,0.03,0.66,0.03c5.64,0,10.21-4.58,10.21-10.24
			c0-2.54-0.93-4.86-2.46-6.65l0.01,0c0,0-0.01-0.01-0.02-0.01c-0.29-0.34-0.61-0.66-0.94-0.96c-0.68-0.61-1.28-1.32-1.72-2.13
			c-0.76-1.41-1.16-3.19-0.22-5.11l0.24-0.45c1.37-2.53,4.02-4.11,6.9-4.11h20.06C89.62,68.35,98.3,59.46,97.99,48.69z"/>
		<path class="st1" d="M97.99,47.46c-0.01-0.17-0.01-0.34-0.02-0.51C96.96,22.58,76.01,3.03,50.62,2.73C23.83,2.41,2,23.17,2,48.83
			c0,23.84,18.84,43.45,43.01,45.85c0.38,0.04,0.76,0.03,1.13,0c0.22,0.01,0.43,0.03,0.66,0.03c5.64,0,10.21-4.39,10.21-9.81
			c0-2.43-0.93-4.66-2.46-6.37l0.01,0c0,0-0.01,0-0.02-0.01c-0.29-0.33-0.61-0.63-0.94-0.92c-0.68-0.59-1.28-1.26-1.72-2.04
			c-0.76-1.35-1.16-3.06-0.22-4.9l0.24-0.43c1.37-2.43,4.02-3.93,6.9-3.93h20.06C89.62,66.3,98.3,57.78,97.99,47.46z"/>
		<path class="st0" d="M51.91,70.23c1.18-2.09,3.31-3.49,5.71-3.84c-1.29-0.86-2.36-1.52-3.12-1.95c-0.42-0.24-0.91-0.31-1.37-0.23
			c-0.85-2.97-4.79-13.52-18.52-15.52c-0.4,13.89,9.29,19.6,12.07,20.95c-0.15,0.44-0.17,0.93-0.01,1.39
			c0.68,1.9,2.17,5.58,4.76,10.05c1.32,2.28,2.95,4.78,4.89,7.34c0.44-1.09,0.69-2.27,0.69-3.51c0-2.43-0.93-4.66-2.46-6.37l0.01,0
			c0,0-0.01,0-0.02-0.01c-0.29-0.33-0.61-0.63-0.94-0.92c-0.68-0.59-1.28-1.26-1.72-2.04c-0.76-1.35-1.16-3.06-0.22-4.9L51.91,70.23
			z"/>
		<g>
			<ellipse class="st0" cx="19.53" cy="51.21" rx="10.72" ry="10.74"/>
			<ellipse class="st0" cx="32.37" cy="27.07" rx="10.72" ry="10.74"/>
			<ellipse class="st0" cx="59.5" cy="23.05" rx="10.72" ry="10.74"/>
			<ellipse class="st0" cx="79.48" cy="40.47" rx="10.72" ry="10.74"/>
		</g>
		<ellipse class="st2" cx="19.53" cy="48.21" rx="10.72" ry="10.74"/>
		<ellipse class="st2" cx="19.53" cy="46.21" rx="7.56" ry="7.57"/>
		<ellipse class="st3" cx="32.37" cy="24.07" rx="10.72" ry="10.74"/>
		<ellipse class="st3" cx="32.37" cy="22.07" rx="7.56" ry="7.57"/>
		<ellipse class="st4" cx="59.5" cy="20.05" rx="10.72" ry="10.74"/>
		<ellipse class="st4" cx="59.5" cy="18.04" rx="7.85" ry="7.86"/>
		<ellipse class="st5" cx="79.48" cy="37.47" rx="10.72" ry="10.74"/>
		<ellipse class="st5" cx="79.48" cy="35.47" rx="7.56" ry="7.57"/>
		<g>
			<path class="st6" d="M39.52,37.47c-0.47,16.2,12.8,21.28,12.8,21.28l5.3,0.31l0.61-5.29C58.24,53.78,55.53,39.8,39.52,37.47z"/>
			<path class="st7" d="M90.42,93.9C86.05,77.43,76.38,66.4,68.76,59.9l0,0l-9.37,3.55l-3.04,6.4c5.04,8.69,14.25,20.33,29.88,27.57
				C88.54,98.51,91.08,96.37,90.42,93.9z"/>
			<path class="st8" d="M68.76,59.9c-4.07-3.47-7.56-5.65-9.35-6.68c-0.76-0.43-1.7-0.35-2.37,0.21l-2.42,2.04l-2.42,2.04
				c-0.67,0.56-0.92,1.48-0.62,2.3c0.68,1.9,2.17,5.58,4.76,10.05L68.76,59.9z"/>
		</g>
	</g>
	<path class="st9" d="M39.52,37.47L39.52,37.47L39.52,37.47c-0.4,13.89,9.29,19.6,12.07,20.95c-0.15,0.44-0.17,0.93-0.01,1.39
		c0.68,1.9,2.17,5.58,4.76,10.05c5.04,8.69,14.25,20.33,29.88,27.57c1.07,0.5,2.18,0.3,3.01-0.29L39.52,37.47z"/>
</g>
</svg>
