<?xml version="1.0" encoding="utf-8"?>
<!-- Generator: Adobe Illustrator 27.4.0, SVG Export Plug-In . SVG Version: 6.00 Build 0)  -->
<svg version="1.1" id="Layer_1" xmlns="http://www.w3.org/2000/svg" xmlns:xlink="http://www.w3.org/1999/xlink" x="0px" y="0px"
	 viewBox="0 0 100 100" style="enable-background:new 0 0 100 100;" xml:space="preserve">
<style type="text/css">
	.st0{fill:#FFFFFF;}
</style>
<g>
	<g>
		<path class="st0" d="M86.05,5.06l10.63,8.18c1.78,1.37,1.78,4.1,0,5.47l-10.63,8.18c-2.21,1.7-5.38,0.09-5.38-2.73v-4.66v-6l0-5.7
			C80.67,4.97,83.83,3.36,86.05,5.06z"/>
		<g>
			<path class="st0" d="M35.55,55.54l-12.23,19c-2.47,3.83-6.61,6.12-11.09,6.12H4.95c-1.64,0-2.97,1.33-2.97,2.97
				s1.33,2.97,2.97,2.97h7.27c6.51,0,12.52-3.31,16.09-8.84l10.77-16.73L35.55,55.54z"/>
			<path class="st0" d="M49.75,44.46l12.71-19.74c2.47-3.83,6.61-6.12,11.09-6.12h7.12v-5.94h-7.12c-6.51,0-12.53,3.31-16.09,8.84
				L46.22,38.97L49.75,44.46z"/>
		</g>
	</g>
	<g>
		<path class="st0" d="M86.05,94.94l10.63-8.18c1.78-1.37,1.78-4.1,0-5.47l-10.63-8.18c-2.21-1.7-5.38-0.09-5.38,2.73v4.66v6l0,5.7
			C80.67,95.03,83.83,96.64,86.05,94.94z"/>
		<path class="st0" d="M80.67,87.34h-7.12c-6.51,0-12.53-3.31-16.09-8.84L23.32,25.46c-2.47-3.83-6.61-6.12-11.09-6.12H4.95
			c-1.64,0-2.97-1.33-2.97-2.97v0c0-1.64,1.33-2.97,2.97-2.97h7.27c6.51,0,12.53,3.31,16.09,8.84l34.14,53.04
			c2.47,3.83,6.61,6.12,11.09,6.12h7.12V87.34z"/>
	</g>
</g>
</svg>
