<?xml version="1.0" encoding="utf-8"?>
<svg viewBox="0 0 500 500" xmlns="http://www.w3.org/2000/svg">
  <g transform="matrix(5.458051, 0, 0, 5.458051, -22.771997, -23.353064)" style="">
    <path d="M50,95.5C24.91,95.5,4.5,75.09,4.5,50S24.91,4.5,50,4.5S95.5,24.91,95.5,50S75.09,95.5,50,95.5z M50,10.5 c-21.78,0-39.5,17.72-39.5,39.5S28.22,89.5,50,89.5S89.5,71.78,89.5,50S71.78,10.5,50,10.5z" style="fill: rgb(0, 192, 240);"/>
    <circle cx="50" cy="50" r="6.98" style="fill: rgb(0, 192, 240);"/>
    <g>
      <circle cx="50" cy="17.64" r="4.12" style="fill: rgb(0, 192, 240);"/>
      <circle cx="50" cy="82.36" r="4.12" style="fill: rgb(0, 192, 240);"/>
    </g>
    <g>
      <circle cx="82.36" cy="50" r="4.12" style="fill: rgb(0, 192, 240);"/>
      <circle cx="17.64" cy="50" r="4.12" style="fill: rgb(0, 192, 240);"/>
    </g>
    <path d="M46.83,53.3L46.83,53.3c-1.6-1.6-1.6-4.2,0-5.81l14.51-14.51c1.6-1.6,4.2-1.6,5.81,0l0,0c1.6,1.6,1.6,4.2,0,5.81 L52.63,53.3C51.03,54.9,48.43,54.9,46.83,53.3z" style="fill: rgb(0, 192, 240);"/>
  </g>
</svg>