<?xml version="1.0" encoding="utf-8"?>
<!-- Generator: Adobe Illustrator 27.4.0, SVG Export Plug-In . SVG Version: 6.00 Build 0)  -->
<svg version="1.1" id="Layer_1" xmlns="http://www.w3.org/2000/svg" xmlns:xlink="http://www.w3.org/1999/xlink" x="0px" y="0px"
	 viewBox="0 0 100 100" style="enable-background:new 0 0 100 100;" xml:space="preserve">
<style type="text/css">
	.st0{fill:#676C97;}
	.st1{opacity:0.32;fill:#292D49;}
	.st2{fill:#292D49;}
	.st3{fill:#959ABC;}
	.st4{fill:#FFFFFF;}
</style>
<g>
	<path class="st0" d="M97.49,72.54L84.42,34.47C78,1,50.01,1,50,1h0h0c-0.01,0-28,0-34.42,33.47L2.51,72.54
		c0,0-6.89,14.26,8.79,19.78c0,0,17.39,6.67,38.7,6.67h0c21.31,0,38.7-6.67,38.7-6.67C104.38,86.81,97.49,72.54,97.49,72.54z"/>
	<path class="st1" d="M88.7,92.33c15.69-5.52,8.79-19.78,8.79-19.78L84.42,34.47C78,1,50.01,1,50,1v98
		C71.31,99,88.7,92.33,88.7,92.33z"/>
	<path class="st2" d="M84.06,77.95c-3.09-8.4-5.82-42.59-5.82-42.59C73.49,5.42,50,4.68,50,4.68h0h0c0,0-23.49,0.74-28.24,30.68
		c0,0-2.73,34.2-5.82,42.59c-3.09,8.4,30.36,12.98,30.36,12.98H50h0h3.71C53.71,90.93,87.15,86.35,84.06,77.95z"/>
	<g>
		<path class="st3" d="M73.73,31.6C73.25,15.92,62.5,9.85,55.23,7.53c-5.96-1.41-11.09,0.21-11.09,0.21
			c-7.24,2.46-17.4,8.63-17.87,23.85c0,0-6.2,6.96-2.51,15.71l4.51,3.15l1.91,0.84c0,0-1.28,9.74,11.57,26.14l8.25-6.6l8.25,6.6
			C71.1,61.04,69.82,51.3,69.82,51.3l1.91-0.84l4.51-3.15C79.93,38.56,73.73,31.6,73.73,31.6z"/>
		<path class="st4" d="M64.12,59.42C61.94,33.61,51.91,31.54,50,31.38c-1.91,0.16-11.94,2.24-14.12,28.05c0,0-0.81,4.76,2.75,12.19
			c0,0,4.81,12.02,4.87,17.2c0,0-0.59,7.93,6.51,7.93s6.51-7.93,6.51-7.93c0.05-5.18,4.87-17.2,4.87-17.2
			C64.93,64.18,64.12,59.42,64.12,59.42z"/>
		<path class="st2" d="M54.79,41.23c-1.33-1.67-3.28-2.73-4.79-2.71c-1.5-0.02-3.46,1.04-4.79,2.71c-1.62,2.04-1.7,4.21-0.17,4.85
			c1.31,0.55,3.37-0.21,4.96-1.71c1.58,1.51,3.65,2.26,4.96,1.71C56.49,45.44,56.41,43.27,54.79,41.23z"/>
		<g>
			<path class="st2" d="M40.26,67.88c0,0,3.89,14.34,5.09,21.42c0,0,0.02,4.95,4.66,5.39V51.72C50,51.72,34.93,51.09,40.26,67.88z"
				/>
			<path class="st2" d="M50,51.72v42.96c4.64-0.44,4.66-5.39,4.66-5.39c1.19-7.08,5.09-21.42,5.09-21.42
				C65.07,51.09,50,51.72,50,51.72z"/>
		</g>
		<g>
			<g>
				<path class="st4" d="M57.79,14.71c0,0,6.45-1.19,7.41,6.2c0.95,7.39,2.35,10.65,7.48,13.65s7.7,6.42,5.35,11.69
					s-9.46,5.71-16.28,1.21s-9.75-17.53-9.75-24.92C51.99,22.54,51.77,15.78,57.79,14.71z"/>
				<path class="st2" d="M71.16,36.4L71.16,36.4c0,0-6.92-3.96-10.07-14.23l-0.09,0.01c-0.36-1.33-1.76-2.33-3.43-2.33
					c-1.94,0-3.52,1.35-3.52,3.01c0,0-0.88,18.32,14.59,20.02l0.03-0.05c0.22,0.03,0.44,0.05,0.67,0.05c2.22,0,4.02-1.54,4.02-3.43
					C73.35,38.12,72.46,36.96,71.16,36.4z"/>
			</g>
			<g>
				<path class="st4" d="M42.21,14.71c0,0-6.45-1.19-7.41,6.2s-2.35,10.65-7.48,13.65s-7.7,6.42-5.35,11.69s9.46,5.71,16.28,1.21
					s9.75-17.53,9.75-24.92C48.01,22.54,48.23,15.78,42.21,14.71z"/>
				<path class="st2" d="M28.84,36.4L28.84,36.4c0,0,6.92-3.96,10.07-14.23l0.09,0.01c0.36-1.33,1.76-2.33,3.43-2.33
					c1.94,0,3.52,1.35,3.52,3.01c0,0,0.88,18.32-14.59,20.02l-0.03-0.05c-0.22,0.03-0.44,0.05-0.67,0.05
					c-2.22,0-4.02-1.54-4.02-3.43C26.65,38.12,27.54,36.96,28.84,36.4z"/>
			</g>
		</g>
	</g>
</g>
</svg>
