<svg enable-background="new 0 0 100 100" viewBox="0 0 100 100" xmlns="http://www.w3.org/2000/svg"><path d="m89.4 0h-78.8c-.6 0-1.1.5-1.1 1.2v47.6h81v-47.6c0-.7-.5-1.2-1.1-1.2z" fill="#af6215"/><path d="m84.2 5h-68.4c-.6 0-1.1.5-1.1 1.2v39.5h70.6v-39.5c0-.7-.5-1.2-1.1-1.2z" fill="#6b3000"/><path d="m80.1 36 9.6-20.1-20.1 10.6 3.9-20.3-16.4 12.4-7.1-18.6-7.1 18.6-16.4-12.4 3.9 20.3-20.1-10.6 9.6 20.1-19.9-2.8 13.1 23 36.9 2.8 36.9-2.8 13.1-23z" fill="#ffe780"/><path d="m1.5 49.6v47.3c0 1.7 1.4 3.1 3.2 3.1h90.7c1.7 0 3.2-1.4 3.2-3.1v-47.3z" fill="#966257"/><path d="m96.9 48.5h-93.8c-1.7 0-3.1 1.7-3.1 3.8 0 2.1 1.4 3.8 3.1 3.8h93.8c1.7 0 3.1-1.7 3.1-3.8 0-2.1-1.4-3.8-3.1-3.8z" fill="#d8882a"/><path d="m1.5 70.2h97v2.9h-97z" fill="#77403a"/><path d="m1.5 85.1h97v2.9h-97z" fill="#77403a"/><ellipse cx="50" cy="63.5" fill="#ffc257" rx="12.4" ry="12.3"/><path d="m55 61c0-2.7-2.2-5-5-5s-5 2.2-5 5c0 1.9 1.1 3.5 2.6 4.4v3.1c0 1.3 1.1 2.4 2.4 2.4s2.4-1.1 2.4-2.4v-3.1c1.6-.8 2.6-2.5 2.6-4.4z" fill="#312833"/><g fill="#ffc257"><path d="m25 46.1h-3.3c-1.4 0-2.6 1.1-2.6 2.5v51.4h8.4v-51.4c0-1.4-1.1-2.5-2.5-2.5z"/><path d="m78.3 46.1h-3.3c-1.4 0-2.6 1.1-2.6 2.5v51.4h8.4v-51.4c.1-1.4-1.1-2.5-2.5-2.5z"/></g></svg>