<?xml version="1.0" encoding="utf-8"?>
<svg viewBox="23.901 3.897 446.697 492.024" xmlns="http://www.w3.org/2000/svg">
  <path d="M 438.326 107.64 L 275.641 13.762 C 257.927 3.555 235.96 3.555 218.245 13.762 L 55.611 107.64 C 37.897 117.848 26.937 136.913 26.937 157.33 L 26.937 345.135 C 26.937 365.551 37.945 384.618 55.611 394.827 L 218.245 488.753 C 227.102 493.858 237.06 496.46 246.969 496.46 C 256.877 496.46 266.835 493.907 275.641 488.803 L 438.274 394.876 C 455.989 384.669 466.949 365.602 466.949 345.186 L 466.949 157.33 C 466.998 136.913 455.989 117.848 438.326 107.64 Z M 248.77 336.728 C 247.668 337.378 246.267 337.378 245.167 336.728 L 173.807 295.543 C 172.707 294.893 172.006 293.692 172.006 292.441 L 172.006 210.075 C 172.006 208.823 172.707 207.623 173.807 206.972 L 245.167 165.789 C 245.717 165.488 246.319 165.287 246.969 165.287 C 247.618 165.287 248.218 165.437 248.77 165.737 L 320.128 206.921 C 321.23 207.572 321.929 208.772 321.929 210.023 L 321.929 292.391 C 321.929 293.644 321.23 294.844 320.128 295.495 L 248.77 336.728 Z M 70.674 368.854 L 123.517 338.328 C 130.672 334.176 133.174 325.019 129.022 317.812 C 124.868 310.657 115.71 308.155 108.504 312.309 L 56.961 342.032 L 56.961 157.381 L 108.504 187.104 C 110.855 188.456 113.459 189.106 116.011 189.106 C 121.214 189.106 126.218 186.405 129.022 181.601 C 133.174 174.446 130.721 165.236 123.517 161.085 L 73.274 132.11 L 231.956 40.534 L 231.956 138.916 C 231.354 139.216 230.755 139.466 230.153 139.816 L 158.796 181 C 148.436 187.004 141.981 198.115 141.981 210.124 L 141.981 292.492 C 141.981 304.451 148.436 315.61 158.796 321.616 L 230.153 362.8 C 230.755 363.15 231.354 363.4 231.956 363.651 L 231.956 462.031 L 70.674 368.854 Z M 261.98 461.981 L 261.98 363.6 C 262.581 363.299 263.182 363.05 263.781 362.701 L 335.141 321.516 C 345.499 315.511 351.953 304.401 351.953 292.441 L 351.953 210.075 C 351.953 198.115 345.499 186.955 335.141 180.951 L 263.781 139.766 C 263.182 139.417 262.581 139.165 261.98 138.916 L 261.98 40.534 L 420.661 132.161 L 370.419 161.133 C 363.262 165.287 360.761 174.446 364.915 181.65 C 367.717 186.454 372.722 189.158 377.926 189.158 C 380.478 189.158 383.03 188.507 385.431 187.156 L 436.975 157.431 L 436.975 342.182 L 385.431 312.458 C 378.276 308.305 369.069 310.805 364.915 317.964 C 360.761 325.12 363.214 334.327 370.419 338.48 L 423.263 369.005 L 261.98 461.981 Z" style="fill: rgb(13, 150, 215);"/>
</svg>