<?xml version="1.0" encoding="utf-8"?>
<!-- Generator: Adobe Illustrator 27.4.0, SVG Export Plug-In . SVG Version: 6.00 Build 0)  -->
<svg version="1.1" id="Layer_1" xmlns="http://www.w3.org/2000/svg" xmlns:xlink="http://www.w3.org/1999/xlink" x="0px" y="0px"
	 viewBox="0 0 100 100" style="enable-background:new 0 0 100 100;" xml:space="preserve">
<style type="text/css">
	.st0{fill:#FF3038;}
	.st1{fill:#83644A;}
	.st2{fill:#FF6D73;}
	.st3{fill:#7095D5;}
	.st4{fill:#82AEEE;}
	.st5{fill:#FFF87B;}
	.st6{fill:#FFFFFF;}
	.st7{fill:#FFC794;}
	.st8{fill:#FFA574;}
	.st9{fill:#51A647;}
	.st10{fill:#6DC666;}
</style>
<g>
	<g>
		<path class="st0" d="M20.54,44.67l-0.94,3.04c0,0,2.61,4.8,3.02,4.69c0.41-0.11,7.65,0.24,7.65,0.24l1.72-3.98l-0.19-3.72"/>
		<g>
			<path class="st1" d="M11.1,88.87c0,0-4.84-0.43-4.38,5.17l-0.24,0.21c-0.14,0.12-0.21,0.29-0.21,0.47l0,0
				c0,0.35,0.28,0.63,0.63,0.63H21.4c0.56,0,1.03-0.41,1.11-0.96c0.18-1.29,0.27-3.59-0.97-4.95C19.74,87.48,12.45,87.02,11.1,88.87
				z"/>
			<path class="st2" d="M5.67,57.56c0,0,6.77-12.85,13.24-12.89v6.45l-6.62,9.02L5.67,57.56z"/>
			<path class="st3" d="M15.18,64.03l-4.16,23.86l-0.25,0.49c-0.12,0.23,0.06,0.5,0.32,0.49c1.4-0.06,4.97,0.02,7.21,2.18
				c0,0,2.87,0.6,3.81-1.76l2.91-19.36h0.99V49.25c0,0-3.9,0.09-5.05-1.54C20.97,47.71,12.27,55.85,15.18,64.03z"/>
			<path class="st4" d="M16.64,52.89c0,0,0.6-7.84,1.58-8.87l3.56-0.3v8.91l-2.57,2.14L16.64,52.89z"/>
			<path class="st5" d="M20.97,51.52c0-0.97-0.79-1.76-1.76-1.76c-0.65,0-1.22,0.35-1.52,0.88c-0.15,0.26-0.23,0.56-0.23,0.88
				c0,0.97,0.79,1.76,1.76,1.76S20.97,52.49,20.97,51.52z"/>
			<path class="st6" d="M7.85,57.11c-1.79-0.29-4.36-0.34-4.02,1.95c0,0-7.37,7.24-1.67,10.54c0,0,0.99,1.24,2.78,0.51
				c0,0,0.99,0.56,2.1-0.13c0,0,3.56,1.41,5.01-2.96c0,0,0.77-2.78-0.21-5.4c0,0,2.7-1.33-0.81-3.39
				C10.05,57.67,8.97,57.29,7.85,57.11z"/>
		</g>
		<g>
			<path class="st1" d="M40.94,88.87c0,0,4.84-0.43,4.38,5.17l0.24,0.21c0.14,0.12,0.21,0.29,0.21,0.47l0,0
				c0,0.35-0.28,0.63-0.63,0.63H30.64c-0.56,0-1.03-0.41-1.11-0.96c-0.18-1.29-0.27-3.59,0.97-4.95
				C32.3,87.48,39.59,87.02,40.94,88.87z"/>
			<path class="st0" d="M46.37,57.56c0,0-6.77-12.85-13.24-12.89v6.45l6.62,9.02L46.37,57.56z"/>
			<path class="st3" d="M36.86,64.03l4.16,23.86l0.25,0.49c0.12,0.23-0.06,0.5-0.32,0.49c-1.4-0.06-4.97,0.02-7.21,2.18
				c0,0-2.87,0.6-3.81-1.76l-2.91-19.36h-0.99V49.25c0,0,3.9,0.09,5.05-1.54C31.08,47.71,39.77,55.85,36.86,64.03z"/>
			<path class="st4" d="M35.4,52.89c0,0-0.6-7.84-1.58-8.87l-3.56-0.3v8.91l2.57,2.14L35.4,52.89z"/>
			<path class="st5" d="M31.08,51.52c0-0.97,0.79-1.76,1.76-1.76c0.65,0,1.22,0.35,1.52,0.88c0.15,0.26,0.23,0.56,0.23,0.88
				c0,0.97-0.79,1.76-1.76,1.76C31.86,53.28,31.08,52.49,31.08,51.52z"/>
			<path class="st6" d="M44.19,57.11c1.79-0.29,4.36-0.34,4.02,1.95c0,0,7.37,7.24,1.67,10.54c0,0-0.99,1.24-2.78,0.51
				c0,0-0.99,0.56-2.1-0.13c0,0-3.56,1.41-5.01-2.96c0,0-0.77-2.78,0.21-5.4c0,0-2.7-1.33,0.81-3.39
				C41.99,57.67,43.07,57.29,44.19,57.11z"/>
		</g>
		<g>
			<path class="st7" d="M39.92,30.88c-1.06-0.86-2.34,0.57-2.34,0.57c0.71-4.8-3.6-5.97-3.6-5.97l-7.94-1.62v-0.01l-0.03,0.01
				l-0.03-0.01v0.01l-7.94,1.62c0,0-4.31,1.17-3.6,5.97c0,0-1.29-1.43-2.34-0.57c-1.2,0.97-1.26,8.14,3.26,8.22
				c0,0,0.06,3.26,3.57,4.4c0,0,1.59,3.12,7.05,3.14v0c0.01,0,0.02,0,0.03,0s0.02,0,0.03,0v0c5.46-0.02,7.05-3.14,7.05-3.14
				c3.51-1.14,3.57-4.4,3.57-4.4C41.18,39.01,41.12,31.85,39.92,30.88z"/>
			<path class="st1" d="M34.66,35.55c-0.12-0.32-0.53-0.43-0.78-0.2c-1.82,1.63-5.92,1.58-5.92,1.58l-1.94,1.91l-1.94-1.91
				c0,0-4.11,0.05-5.92-1.58c-0.25-0.23-0.66-0.12-0.78,0.2c-0.35,0.94-0.6,2.62,1.37,3.78c0,0,0.26,2.48,3.37,1.83
				c0,0,1.6,2.1,3.91,0.58c2.31,1.52,3.91-0.58,3.91-0.58c3.11,0.66,3.37-1.83,3.37-1.83C35.26,38.17,35.01,36.49,34.66,35.55z"/>
			<g>
				<ellipse class="st6" cx="22.28" cy="32.62" rx="2.04" ry="2.8"/>
				<ellipse class="st6" cx="29.75" cy="32.62" rx="2.04" ry="2.8"/>
			</g>
			<ellipse class="st8" cx="26.02" cy="36.93" rx="5" ry="4.06"/>
			<g>
				<g>
					<path class="st1" d="M18.65,28.38c0.78-0.56,2.54-1.41,4.45,0.28c0.2,0.17,0.51,0,0.47-0.26c-0.16-1.07-0.74-2.89-2.85-3.27
						c0,0-2.53-0.52-2.52,3.01C18.19,28.38,18.46,28.51,18.65,28.38z"/>
					<path class="st1" d="M14.37,31.45c0,0-0.27,2.67,0.16,4.42c0.09,0.37,0.57,0.46,0.79,0.16l0.98-1.37
						c0.27-0.37,0.4-0.83,0.38-1.29l-0.31-5.86C16.37,27.51,14.2,27.65,14.37,31.45z"/>
				</g>
				<g>
					<path class="st1" d="M33.39,28.38c-0.78-0.56-2.54-1.41-4.45,0.28c-0.2,0.17-0.51,0-0.47-0.26c0.16-1.07,0.74-2.89,2.85-3.27
						c0,0,2.53-0.52,2.52,3.01C33.84,28.38,33.58,28.51,33.39,28.38z"/>
					<path class="st1" d="M37.66,31.45c0,0,0.27,2.67-0.16,4.42c-0.09,0.37-0.57,0.46-0.79,0.16l-0.98-1.37
						c-0.27-0.37-0.4-0.83-0.38-1.29l0.31-5.86C35.66,27.51,37.83,27.65,37.66,31.45z"/>
				</g>
			</g>
			<g>
				<path class="st2" d="M39.67,25.25c-0.94-4.94-5.51-12.37-13.65-12.37c-8.14,0-12.71,7.42-13.65,12.37
					c-0.94,4.94,2.06,6.2,2.06,6.2c-0.6-2.28,0.63-3.57,0.63-3.57l3.06-2.63l7.91-2.43l7.91,2.43l3.06,2.63c0,0,1.23,1.29,0.63,3.57
					C37.61,31.45,40.61,30.19,39.67,25.25z"/>
				<circle class="st6" cx="26.02" cy="19.57" r="4.76"/>
				<path class="st0" d="M38.18,29.42c-0.11-1.23-0.51-6.6-12.17-6.6s-12.05,5.37-12.17,6.6c-0.11,1.23,0.57,2.03,0.57,2.03
					c-0.09-6.6,11.59-6.34,11.59-6.34s11.68-0.26,11.59,6.34C37.61,31.45,38.3,30.65,38.18,29.42z"/>
			</g>
		</g>
	</g>
	<g>
		<path class="st9" d="M71.11,39.12l-0.86,3.37c0,0,2.39,5.32,2.77,5.2c0.37-0.12,7.01,0.26,7.01,0.26l1.58-4.42l-0.17-4.13"/>
		<g>
			<path class="st1" d="M62.46,88.16c0,0-4.44-0.48-4.02,5.73l-0.22,0.24c-0.13,0.13-0.2,0.32-0.2,0.52l0,0
				c0,0.39,0.26,0.7,0.58,0.7h13.31c0.51,0,0.95-0.45,1.02-1.07c0.16-1.44,0.24-3.98-0.89-5.49C70.38,86.61,63.7,86.11,62.46,88.16z
				"/>
			<path class="st10" d="M57.48,53.42c0,0,6.21-14.26,12.14-14.31v7.15l-6.07,10L57.48,53.42z"/>
			<path class="st3" d="M66.2,60.6l-3.81,26.47l-0.23,0.55c-0.11,0.26,0.05,0.56,0.29,0.55c1.28-0.07,4.56,0.02,6.61,2.42
				c0,0,2.63,0.67,3.5-1.95l2.67-21.48h0.9V44.2c0,0-3.57,0.1-4.63-1.71C71.51,42.49,63.53,51.52,66.2,60.6z"/>
			<path class="st6" d="M59.48,52.92c-1.64-0.33-4-0.37-3.69,2.17c0,0-6.76,8.03-1.53,11.69c0,0,0.9,1.38,2.55,0.57
				c0,0,0.9,0.62,1.92-0.14c0,0,3.26,1.57,4.6-3.28c0,0,0.71-3.09-0.2-5.99c0,0,2.47-1.48-0.74-3.76
				C61.5,53.55,60.51,53.12,59.48,52.92z"/>
		</g>
		<g>
			<path class="st1" d="M89.82,88.16c0,0,4.44-0.48,4.02,5.73l0.22,0.24c0.13,0.13,0.2,0.32,0.2,0.52l0,0c0,0.39-0.26,0.7-0.58,0.7
				H80.37c-0.51,0-0.95-0.45-1.02-1.07c-0.16-1.44-0.24-3.98,0.89-5.49C81.9,86.61,88.58,86.11,89.82,88.16z"/>
			<path class="st9" d="M94.8,53.42c0,0-6.21-14.26-12.14-14.31v7.15l6.07,10L94.8,53.42z"/>
			<path class="st3" d="M86.08,60.6l3.81,26.47l0.23,0.55c0.11,0.26-0.05,0.56-0.29,0.55c-1.28-0.07-4.56,0.02-6.61,2.42
				c0,0-2.63,0.67-3.5-1.95l-2.67-21.48h-0.9V44.2c0,0,3.57,0.1,4.63-1.71C80.78,42.49,88.75,51.52,86.08,60.6z"/>
			<path class="st6" d="M92.8,52.92c1.64-0.33,4-0.37,3.69,2.17c0,0,6.76,8.03,1.53,11.69c0,0-0.9,1.38-2.55,0.57
				c0,0-0.9,0.62-1.92-0.14c0,0-3.26,1.57-4.6-3.28c0,0-0.71-3.09,0.2-5.99c0,0-2.47-1.48,0.74-3.76
				C90.78,53.55,91.77,53.12,92.8,52.92z"/>
		</g>
	</g>
	<g>
		<g>
			<path class="st4" d="M66.66,47.33c0,0,1.98-8.49,3.06-9.46l3.27,0.21l-1.63,9.75l-2.72,1.95L66.66,47.33z"/>
			<path class="st5" d="M70.79,46.73c0.16-0.93-0.43-1.8-1.31-1.94c-0.59-0.1-1.16,0.15-1.52,0.61c-0.18,0.22-0.3,0.5-0.35,0.8
				c-0.16,0.93,0.43,1.8,1.31,1.94C69.79,48.28,70.63,47.65,70.79,46.73z"/>
		</g>
		<g>
			<path class="st4" d="M85.62,47.33c0,0-1.98-8.49-3.06-9.46l-3.27,0.21l1.63,9.75l2.72,1.95L85.62,47.33z"/>
			<path class="st5" d="M81.49,46.73c-0.16-0.93,0.43-1.8,1.31-1.94c0.59-0.1,1.16,0.15,1.52,0.61c0.18,0.22,0.3,0.5,0.35,0.8
				c0.16,0.93-0.43,1.8-1.31,1.94C82.49,48.28,81.65,47.65,81.49,46.73z"/>
		</g>
	</g>
	<path class="st7" d="M87.34,24.09c1.12-2.33-1.49-6.62-1.49-6.62l-9.13-2.63v-0.03l-0.04,0.01l-0.04-0.01v0.03l-9.13,2.63
		c0,0-2.62,4.29-1.49,6.62c0,0-3.41-1.72-3.05,2.84c0.35,4.57,3.96,5.97,5.6,5.41c0,0,2.44,9.45,8.07,10.1v0.01
		c0.02,0,0.03,0,0.04-0.01c0.02,0,0.03,0.01,0.04,0.01v-0.01c5.63-0.65,8.07-10.1,8.07-10.1c1.65,0.56,5.25-0.84,5.6-5.41
		C90.75,22.37,87.34,24.09,87.34,24.09z"/>
	<g>
		<path class="st10" d="M89.29,17.6c-0.87-5.18-5.09-12.96-12.61-12.96c-7.52,0-11.74,7.78-12.61,12.96
			c-0.87,5.18,1.9,6.49,1.9,6.49c-0.55-2.39,0.58-3.74,0.58-3.74l2.82-2.75l7.31-2.54l7.31,2.54l2.82,2.75c0,0,1.13,1.35,0.58,3.74
			C87.39,24.09,90.16,22.78,89.29,17.6z"/>
		<ellipse class="st6" cx="76.68" cy="11.64" rx="4.39" ry="4.98"/>
		<path class="st9" d="M87.91,21.97c-0.11-1.29-0.47-6.91-11.24-6.91s-11.13,5.63-11.24,6.91c-0.11,1.29,0.53,2.12,0.53,2.12
			c-0.08-6.91,10.71-6.64,10.71-6.64s10.79-0.27,10.71,6.64C87.39,24.09,88.02,23.25,87.91,21.97z"/>
	</g>
	<g>
		<ellipse class="st6" cx="73.73" cy="24.23" rx="2.07" ry="3.08"/>
		<ellipse class="st6" cx="79.62" cy="24.23" rx="2.07" ry="3.08"/>
	</g>
	<g>
		<g>
			<path class="st1" d="M70.18,20.29c0.75-0.76,2.13-1.65,4.13-0.9c0.25,0.09,0.47-0.2,0.31-0.42c-1.15-1.53-3.73-4.16-4.9,1.07
				C69.66,20.31,69.99,20.49,70.18,20.29z"/>
			<path class="st1" d="M66.01,24.09c0,0,0.05,4.43,2.1,5.78L67.55,19.8C67.55,19.8,64.79,20.18,66.01,24.09z"/>
			<path class="st1" d="M75.19,31.08c0,0-4.57,0.05-6.17-2.45c0,0-2.44,2.46-0.26,5.9c2.19,3.43,7.15,1.27,7.96,0.31L75.19,31.08z"
				/>
		</g>
		<g>
			<path class="st1" d="M83.17,20.29c-0.75-0.76-2.13-1.65-4.13-0.9c-0.25,0.09-0.47-0.2-0.31-0.42c1.15-1.53,3.73-4.16,4.9,1.07
				C83.69,20.31,83.37,20.49,83.17,20.29z"/>
			<path class="st1" d="M87.34,24.09c0,0-0.05,4.43-2.1,5.78L85.8,19.8C85.8,19.8,88.56,20.18,87.34,24.09z"/>
			<path class="st1" d="M78.16,31.08c0,0,4.57,0.05,6.17-2.45c0,0,2.44,2.46,0.26,5.9s-7.15,1.27-7.96,0.31L78.16,31.08z"/>
		</g>
	</g>
	<circle class="st8" cx="76.68" cy="29.87" r="4.97"/>
</g>
</svg>
