<?xml version="1.0" encoding="utf-8"?>
<!-- Generator: Adobe Illustrator 27.4.0, SVG Export Plug-In . SVG Version: 6.00 Build 0)  -->
<svg version="1.1" id="Layer_1" xmlns="http://www.w3.org/2000/svg" xmlns:xlink="http://www.w3.org/1999/xlink" x="0px" y="0px"
	 viewBox="0 0 100 100" style="enable-background:new 0 0 100 100;" xml:space="preserve">
<style type="text/css">
	.st0{fill:#FF6D73;}
	.st1{opacity:0.57;fill:#FF3038;}
	.st2{fill:#C60819;}
	.st3{fill:#FF3038;}
	.st4{fill:#FF9094;}
	.st5{fill:#FFFFFF;}
	.st6{fill:#A6C8DB;}
	.st7{fill:#D39662;}
	.st8{fill:#EFB780;}
	.st9{fill:#FFD0A1;}
</style>
<g>
	<g>
		<g>
			<path class="st0" d="M98.51,23.62c-3.16-3.29-13.15-13.28-21.77-17.56C66.35,0.9,50,1,50,1S33.65,0.9,23.25,6.07
				c-8.62,4.28-18.6,14.27-21.77,17.56c-0.58,0.61-0.65,1.58-0.16,2.28l11.54,16.33c0.48,0.68,1.36,0.88,2.06,0.47l6.91-4.04
				l1.37,35.08c0.03,0.68,0.49,1.25,1.12,1.37c5.14,0.92,27.87,4.49,51.36,0.01c0.62-0.12,1.09-0.69,1.12-1.37l1.37-35.08l6.91,4.04
				c0.7,0.41,1.58,0.21,2.06-0.47L98.67,25.9C99.16,25.21,99.1,24.23,98.51,23.62z"/>
			<path class="st1" d="M41.06,77.02V63.1c0-1.66-1.19-3.09-2.83-3.38l-4.65-0.83V76.4C35.8,76.63,38.31,76.85,41.06,77.02z"/>
			<path class="st2" d="M50,4.16c0,0-6.75-0.05-14.72,1.5c2.02,7.7,7.85,13.26,14.72,13.26s12.7-5.57,14.72-13.26
				C56.75,4.11,50,4.16,50,4.16z"/>
			<path class="st3" d="M93.71,18.87c-4.55-4.3-11.08-9.88-16.97-12.81c-1.93-0.96-4.06-1.73-6.25-2.36
				C67.3,13.89,59.34,21.12,50,21.12v56.2c7.82,0.04,16.7-0.49,25.68-2.21c0.62-0.12,1.09-0.69,1.12-1.37l1.37-35.08l1.76,1.03
				L93.71,18.87z"/>
		</g>
		<path class="st4" d="M6.29,18.87c-2.11,1.99-3.8,3.71-4.8,4.75c-0.58,0.61-0.65,1.58-0.16,2.28l11.54,16.33
			c0.48,0.68,1.36,0.89,2.06,0.47l5.14-3.01L6.29,18.87z"/>
	</g>
	<g>
		<path class="st5" d="M15.12,59.15l0,15.25c0,2.9-1.68,5.53-4.32,6.74L8.49,82.2c-3.56,1.64-5.2,5.8-3.72,9.43l0,0
			c1.13,2.76,3.81,4.56,6.78,4.56h11.13c7.22,0,13.07-5.85,13.07-13.07V59.12c0-0.86-0.61-1.59-1.45-1.73
			c-2.83-0.49-9.52-1.3-17.69,0.02C15.76,57.55,15.12,58.28,15.12,59.15z"/>
		<g>
			<rect x="15.12" y="61.83" class="st6" width="20.64" height="4.15"/>
			<rect x="15.12" y="68.33" class="st6" width="20.64" height="5.1"/>
		</g>
	</g>
	<g>
		
			<ellipse transform="matrix(0.8992 -0.4374 0.4374 0.8992 -28.9297 38.248)" class="st7" cx="68.56" cy="81.93" rx="30.65" ry="11.75"/>
		<path class="st8" d="M81.27,70.44c0,0-5.34-8.91-11.2-13.83c-1.29-1.08-2.98-1.2-4.21-0.35l-7.27,5.03l-8.44,2.62
			c-1.44,0.45-2.38,1.85-2.33,3.54c0.21,6.34,2.8,14.09,3.68,16.55c0.06,0.3,0.14,0.59,0.27,0.87c1.75,3.61,9.78,3.32,17.92-0.64
			S83,74.12,81.25,70.52c-0.01-0.01-0.02-0.03-0.03-0.04L81.27,70.44z"/>
		<path class="st9" d="M64.98,74.55c-5.94,2.89-11.75,4.06-15.37,3.37c0.53,1.96,1.07,3.68,1.49,4.91
			c3.48,1.16,9.86,0.06,16.39-3.12c6.62-3.22,11.46-7.64,12.61-11.11c-0.71-1.09-1.72-2.56-2.93-4.16
			C75.52,67.72,70.98,71.63,64.98,74.55z"/>
	</g>
</g>
</svg>
